<svg width="40" height="40" viewBox="0 0 40 40" fill="none" xmlns="http://www.w3.org/2000/svg">
<path d="M20 24.1667C22.3012 24.1667 24.1667 22.3012 24.1667 20C24.1667 17.6988 22.3012 15.8333 20 15.8333C17.6989 15.8333 15.8334 17.6988 15.8334 20C15.8334 22.3012 17.6989 24.1667 20 24.1667Z" stroke="#193D2D" stroke-width="2" stroke-miterlimit="10" stroke-linecap="round" stroke-linejoin="round"/>
<path d="M30.8334 15.8333V24.1667" stroke="#193D2D" stroke-width="2" stroke-miterlimit="10" stroke-linecap="round" stroke-linejoin="round"/>
<path d="M8.33329 36.6667C12.0152 36.6667 15 33.6819 15 30C15 26.3181 12.0152 23.3333 8.33329 23.3333C4.65139 23.3333 1.66663 26.3181 1.66663 30C1.66663 33.6819 4.65139 36.6667 8.33329 36.6667Z" stroke="#193D2D" stroke-width="2" stroke-miterlimit="10" stroke-linecap="round" stroke-linejoin="round"/>
<path d="M8.74996 27.9167V29.4666C8.74996 30.05 8.44998 30.6 7.93331 30.9L6.66663 31.6667" stroke="#193D2D" stroke-width="2" stroke-miterlimit="10" stroke-linecap="round" stroke-linejoin="round"/>
<path d="M3.33337 25.3334V15C3.33337 9.16667 6.66671 6.66667 11.6667 6.66667H28.3334C33.3334 6.66667 36.6667 9.16667 36.6667 15V25C36.6667 30.8333 33.3334 33.3333 28.3334 33.3333H14.1667" stroke="#193D2D" stroke-width="2" stroke-miterlimit="10" stroke-linecap="round" stroke-linejoin="round"/>
</svg>
